
<svg width="198" height="47" viewBox="0 0 198 47" fill="none" xmlns="http://www.w3.org/2000/svg">
<path fill-rule="evenodd" clip-rule="evenodd" d="M95.6094 9.3136C95.6094 10.2426 95.5819 10.8413 95.458 11.7565L95.1759 13.7522C99.8003 13.7522 99.6076 18.5417 96.8894 18.9753C95.0589 19.2712 94.0886 18.1632 93.6344 18.1288C93.6207 18.8858 92.437 20.7576 91.9691 21.4595L88.2874 26.1664C88.1291 26.3591 88.0947 26.4142 87.9158 26.5931C87.7438 26.7651 87.6887 26.8821 87.5167 27.061C87.2277 27.3569 86.973 27.5978 86.684 27.8937C84.9292 29.6485 83.5185 30.5293 81.3921 31.7886C81.1856 31.9125 81.0411 31.9744 80.8347 32.0983L79.7198 32.642C78.2334 33.2751 77.7586 33.5159 76.0175 33.9288C75.061 34.1559 74.0012 34.1628 73.3612 34.7821L73.086 35.1193C72.6937 35.6905 72.4942 36.2203 72.2533 36.881C71.9918 37.6104 71.5927 39.6061 71.6271 40.3837C71.634 40.6245 71.6753 40.8723 71.6959 41.1819C71.7234 41.5535 71.8886 42.2417 71.9918 42.5513C73.3406 46.577 78.3848 45.9783 81.6329 45.3315C82.851 45.0906 84.7985 44.3474 85.9339 43.7763C88.1773 42.6546 90.579 41.0512 92.5678 39.5579C92.8981 39.3101 93.194 39.0899 93.5037 38.8284C94.2675 38.1885 94.9694 37.4865 95.6645 36.7984C96.0774 36.3855 97.5845 34.5413 97.9148 34.0527L98.9126 32.525C99.0296 32.3529 99.1122 32.2084 99.2154 32.0226C101.397 28.107 102.711 24.3291 102.711 19.5464C102.711 16.491 101.947 12.4997 100.55 9.74026C99.8347 8.32266 99.4081 7.73085 98.5892 6.51971C98.4722 6.34767 98.3827 6.19627 98.2657 6.038C97.8253 5.41178 96.0361 3.11335 95.3686 2.95508C95.3686 5.16405 95.6163 7.1184 95.6163 9.30672L95.6094 9.3136Z" fill="#FAFAFA"/>
<path fill-rule="evenodd" clip-rule="evenodd" d="M104.424 19.6093C104.424 21.7495 104.114 23.5868 103.722 25.376C103.454 26.6009 102.642 29.0852 102.126 30.1931C101.148 32.2851 101.155 32.2644 99.9097 34.3839L98.5815 36.2626C98.0447 36.9232 97.5699 37.2329 97.3359 38.2238C97.5217 38.272 98.7398 39.1803 99.0288 39.373C101.086 40.7356 101.768 41.4375 104.162 42.745L106.014 43.729C107.665 44.5548 110.803 45.7453 112.572 45.7453C113.638 45.7453 114.746 45.5526 115.648 45.3737C117.313 45.0365 118.992 44.0043 119.68 42.4353C120.265 41.1003 120.506 39.2904 120.011 37.8109C119.791 37.1503 119.584 36.8406 119.343 36.3176L119.054 35.7465C118.05 33.6201 114.877 28.4245 113.535 26.1605L111.904 23.4767C111.464 22.7404 111.03 22.0591 110.597 21.3366C108.911 18.5151 107.018 15.6111 105.339 12.7828L100.701 5.33703C100.488 5.05488 100.151 4.53189 99.8133 4.43555C99.9578 5.048 100.267 5.65358 100.536 6.18345L101.747 8.66768C103.055 11.2758 103.33 12.2254 103.922 15.1225C104.19 16.4507 104.438 18.0541 104.438 19.5955L104.424 19.6093Z" fill="#FAFAFA"/>
<path fill-rule="evenodd" clip-rule="evenodd" d="M74.8242 32.3132C75.0513 32.2581 75.3472 32.1136 75.5812 32.0242C77.3085 31.3291 78.8568 30.9782 80.7286 29.8358C81.5338 29.3473 81.871 29.2234 82.6899 28.6522C85.2154 26.8905 86.6881 25.5624 88.6149 22.9887C88.7801 22.7685 88.8833 22.5896 89.0485 22.3694C90.1977 20.8348 90.879 19.1144 91.7667 17.69C93.3013 15.2401 94.3886 18.1304 96.2191 18.1304C96.9279 18.1304 97.4165 17.2908 97.5128 16.8298C97.5885 16.4719 97.5128 16.1141 97.3958 15.7907C97.1825 15.2195 97.2032 15.1782 96.7421 15.0887C96.3774 15.013 95.9782 14.9511 95.6066 14.9305C94.9804 14.8961 93.8793 14.9236 93.5215 14.4281C92.8746 13.5404 93.7004 9.54912 93.7004 7.6567C93.7004 6.28728 93.7004 5.95697 93.5284 4.56002C93.3701 3.28694 93.0191 2.41987 91.7461 3.47274C90.7964 4.25723 90.411 4.86969 89.6816 5.84686C88.5255 7.38144 87.4795 9.71428 86.4403 11.4278L83.7772 16.1623C83.5982 16.4926 83.4262 16.7403 83.2404 17.105C83.1441 17.2977 83.089 17.3528 82.9927 17.5386L76.3313 29.3748C75.9459 30.0836 74.8724 31.8246 74.8311 32.3132H74.8242Z" fill="#FAFAFA"/>
<path fill-rule="evenodd" clip-rule="evenodd" d="M124.265 0.63681V45.6419H133.19V35.2921C133.19 35.2921 133.727 32.1886 135.984 31.8651C138.248 31.5417 139.783 31.7826 140.932 32.4982C142.081 33.207 151.702 45.8553 151.702 45.8553L162.698 46.0204C162.698 46.0204 152.995 34.7347 152.638 33.0556C152.28 31.3766 152.348 30.826 152.865 30.0828C153.381 29.3396 155.597 27.9152 155.597 27.9152C155.597 27.9152 157.881 26.0227 159.354 22.6714C161.467 17.875 162.203 10.3329 154.661 3.23802C151.97 0.705625 145.783 0.698744 142.322 0.650573C137.126 0.588639 129.557 0.650573 124.258 0.650573L124.265 0.63681ZM133.149 12.535L133.128 20.8891C133.128 20.8891 133.809 23.4972 136.17 23.6211C138.53 23.745 145.797 23.745 145.797 23.745C152.638 21.7631 153.401 13.7667 148.013 10.1264C145.446 8.39228 142.522 8.97033 136.28 9.17678C136.28 9.17678 133.08 9.28688 133.156 12.535H133.149Z" fill="#FAFAFA"/>
<path fill-rule="evenodd" clip-rule="evenodd" d="M21.2037 37.6446C10.3446 37.6446 7.24787 33.1579 5.16274 32.9858C4.92877 33.8598 3.55933 35.3806 2.94687 36.1995C2.10044 37.3281 1.22647 38.374 0.503906 39.4544C1.72195 41.2712 6.1881 43.3287 8.63107 44.2646C13.5308 46.1364 19.9926 46.9002 25.608 45.93C27.3421 45.6272 29.1726 45.1592 30.6109 44.4642C33.5218 43.0535 36.0749 40.9959 37.2172 37.8717C38.394 34.658 38.0017 29.9786 36.5153 27.2466C30.8311 16.8418 10.5923 21.473 10.5923 13.0569C10.5923 9.67122 14.9484 9.17575 17.5771 9.17575C21.2863 9.17575 24.9611 10.2493 28.1542 11.5361C28.684 11.7494 29.0075 11.8871 29.5305 12.2311C30.1498 12.6303 30.3012 12.8642 31.0307 13.0569C31.767 12.5615 33.0263 10.5314 33.6181 9.69187C34.2512 8.79039 35.7101 7.08377 35.9441 6.06531C35.1321 5.8451 34.1274 4.81287 32.7579 4.07655C29.269 2.21854 24.9198 0.972982 20.5156 0.628906L15.6847 0.628906C12.7876 0.869759 10.0005 1.55791 7.56442 2.78282C1.01314 6.07219 -2.8199 17.2822 6.28444 23.3035C8.62419 24.845 10.7988 25.8153 13.8886 26.5654C15.1135 26.8613 17.0954 27.343 18.3892 27.5012C21.7474 27.9073 29.5924 28.6229 28.2092 33.5019C27.3215 36.6261 24.4174 37.6377 21.1969 37.6377L21.2037 37.6446Z" fill="#FAFAFA"/>
<path fill-rule="evenodd" clip-rule="evenodd" d="M197.497 0.636719L162.043 0.636719V9.17668C163.461 9.17668 172.042 8.97024 173.005 9.34184C173.714 9.6171 174.567 10.6631 174.815 11.4132C175.744 14.1795 174.691 35.5535 174.719 41.0037C174.726 42.2217 174.712 43.4329 174.698 44.6509C174.678 46.6878 174.788 46.4883 176.776 46.4539C179.371 46.4057 181.965 46.4401 184.553 46.4401C184.553 36.6959 184.553 26.9448 184.553 17.2005C184.553 8.63304 184.842 8.82573 194.648 8.92207C196.582 8.94271 197.27 9.20421 197.49 8.15822V0.636719H197.497Z" fill="#FAFAFA"/>
<path fill-rule="evenodd" clip-rule="evenodd" d="M39.4805 9.17669H50.0919C50.5461 9.17669 51.2549 9.74097 51.537 10.0575C53.2574 11.9912 52.4179 13.9043 52.4179 15.9068V46.1855H61.9902V13.3194C61.9902 12.0669 62.231 11.0278 62.871 10.3121C63.3458 9.78226 64.7153 8.91519 65.6168 8.91519H74.6729V0.636719L39.4805 0.636719V9.17669Z" fill="#FAFAFA"/>
</svg>
