<svg width="100%" height="100%" viewBox="0 0 700 465" fill="none" xmlns="http://www.w3.org/2000/svg">
<rect x="0.5" y="0.5" width="699" height="464" fill="#06092B" stroke="black"/>
<mask id="path-2-inside-1_1990_2574" fill="white">
<path fill-rule="evenodd" clip-rule="evenodd" d="M30 387.003C56.5555 387.271 78 408.881 78 435.5C78 435.667 77.9992 435.834 77.9975 436H624.003C624.002 435.923 624.001 435.845 624.001 435.768C624 435.679 624 435.589 624 435.5C624 408.714 645.714 387 672.5 387C672.667 387 672.834 387.001 673 387.003V76.9975C672.834 76.9992 672.667 77 672.5 77C645.881 77 624.271 55.5555 624.003 29H77.9975C77.7309 55.389 56.389 76.7309 30 76.9975V387.003Z"/>
</mask>
<path fill-rule="evenodd" clip-rule="evenodd" d="M30 387.003C56.5555 387.271 78 408.881 78 435.5C78 435.667 77.9992 435.834 77.9975 436H624.003C624.002 435.923 624.001 435.845 624.001 435.768C624 435.679 624 435.589 624 435.5C624 408.714 645.714 387 672.5 387C672.667 387 672.834 387.001 673 387.003V76.9975C672.834 76.9992 672.667 77 672.5 77C645.881 77 624.271 55.5555 624.003 29H77.9975C77.7309 55.389 56.389 76.7309 30 76.9975V387.003Z" fill="#FAFAFA"/>
<path d="M30 387.003H29V387.992L29.9899 388.002L30 387.003ZM77.9975 436L76.9975 435.99L76.9873 437H77.9975V436ZM624.003 436V437H625.013L625.002 435.99L624.003 436ZM624.001 435.768L625.001 435.763V435.763L624.001 435.768ZM673 387.003L672.99 388.002L674 388.013V387.003H673ZM673 76.9975H674V75.9873L672.99 75.9975L673 76.9975ZM624.003 29L625.002 28.9899L624.992 28H624.003V29ZM77.9975 29V28H77.0075L76.9975 28.9899L77.9975 29ZM30 76.9975L29.9899 75.9975L29 76.0075V76.9975H30ZM29.9899 388.002C55.9977 388.265 77 409.43 77 435.5H79C79 408.332 57.1134 386.276 30.0101 386.003L29.9899 388.002ZM77 435.5C77 435.664 76.9992 435.827 76.9975 435.99L78.9974 436.01C78.9991 435.84 79 435.67 79 435.5H77ZM624.003 435H77.9975V437H624.003V435ZM623.001 435.773C623.001 435.852 623.002 435.931 623.003 436.01L625.002 435.99C625.002 435.914 625.001 435.839 625.001 435.763L623.001 435.773ZM623 435.5C623 435.591 623 435.682 623.001 435.774L625.001 435.763C625 435.675 625 435.588 625 435.5H623ZM672.5 386C645.162 386 623 408.162 623 435.5H625C625 409.266 646.266 388 672.5 388V386ZM673.01 386.003C672.84 386.001 672.67 386 672.5 386V388C672.663 388 672.827 388.001 672.99 388.002L673.01 386.003ZM672 76.9975V387.003H674V76.9975H672ZM672.5 78C672.67 78 672.84 77.9991 673.01 77.9974L672.99 75.9975C672.827 75.9992 672.664 76 672.5 76V78ZM623.003 29.0101C623.276 56.1134 645.332 78 672.5 78V76C646.43 76 625.265 54.9977 625.002 28.9899L623.003 29.0101ZM77.9975 30H624.003V28H77.9975V30ZM30.0101 77.9974C56.9435 77.7254 78.7254 55.9435 78.9974 29.0101L76.9975 28.9899C76.7365 54.8346 55.8346 75.7365 29.9899 75.9975L30.0101 77.9974ZM31 387.003V76.9975H29V387.003H31Z" fill="black" mask="url(#path-2-inside-1_1990_2574)"/>
<rect x="76" y="269" width="563" height="14" fill="#D9D9D9"/>
<rect x="76" y="177" width="277" height="14" fill="#D9D9D9"/>
<rect x="288" y="341" width="159" height="27" fill="#D9D9D9"/>
<path fill-rule="evenodd" clip-rule="evenodd" d="M347.707 78.4787C347.707 79.4917 347.677 80.1446 347.542 81.1426L347.234 83.3188C352.277 83.3188 352.067 88.5416 349.102 89.0144C347.106 89.3371 346.048 88.1289 345.553 88.0914C345.538 88.9169 344.247 90.958 343.737 91.7234L339.722 96.8562C339.55 97.0663 339.512 97.1263 339.317 97.3214C339.13 97.509 339.07 97.6366 338.882 97.8317C338.567 98.1544 338.289 98.417 337.974 98.7397C336.06 100.653 334.522 101.614 332.203 102.987C331.978 103.122 331.821 103.19 331.595 103.325L330.38 103.917C328.759 104.608 328.241 104.871 326.343 105.321C325.3 105.568 324.144 105.576 323.446 106.251L323.146 106.619C322.718 107.242 322.501 107.82 322.238 108.54C321.953 109.335 321.517 111.512 321.555 112.36C321.563 112.622 321.608 112.892 321.63 113.23C321.66 113.635 321.84 114.386 321.953 114.723C323.424 119.113 328.924 118.46 332.466 117.755C333.794 117.492 335.918 116.682 337.156 116.059C339.602 114.836 342.221 113.087 344.39 111.459C344.75 111.189 345.073 110.949 345.41 110.664C346.243 109.966 347.009 109.2 347.767 108.45C348.217 108 349.86 105.989 350.221 105.456L351.309 103.79C351.436 103.602 351.526 103.445 351.639 103.242C354.018 98.9723 355.451 94.8526 355.451 89.6372C355.451 86.3054 354.618 81.9531 353.095 78.9439C352.314 77.3981 351.849 76.7527 350.956 75.432C350.828 75.2444 350.731 75.0793 350.603 74.9067C350.123 74.2239 348.172 71.7175 347.444 71.5449C347.444 73.9537 347.714 76.0849 347.714 78.4712L347.707 78.4787Z" fill="#06092B"/>
<path fill-rule="evenodd" clip-rule="evenodd" d="M357.319 89.7027C357.319 92.0365 356.981 94.0401 356.554 95.9911C356.261 97.3269 355.375 100.036 354.813 101.244C353.747 103.525 353.755 103.503 352.396 105.814L350.948 107.863C350.363 108.583 349.845 108.921 349.59 110.001C349.792 110.054 351.121 111.044 351.436 111.254C353.68 112.74 354.422 113.506 357.034 114.931L359.052 116.005C360.853 116.905 364.275 118.203 366.204 118.203C367.367 118.203 368.575 117.993 369.558 117.798C371.374 117.43 373.205 116.305 373.956 114.594C374.593 113.138 374.856 111.164 374.316 109.551C374.076 108.831 373.851 108.493 373.588 107.923L373.273 107.3C372.177 104.981 368.718 99.3154 367.254 96.8466L365.476 93.92C364.996 93.1171 364.523 92.3742 364.05 91.5863C362.212 88.5096 360.148 85.3429 358.317 82.2587L353.259 74.1393C353.027 73.8316 352.659 73.2613 352.291 73.1562C352.449 73.8241 352.787 74.4845 353.079 75.0623L354.4 77.7713C355.826 80.6153 356.126 81.6509 356.771 84.8101C357.064 86.2584 357.334 88.0068 357.334 89.6877L357.319 89.7027Z" fill="#06092B"/>
<path fill-rule="evenodd" clip-rule="evenodd" d="M325.044 103.557C325.292 103.497 325.614 103.339 325.869 103.242C327.753 102.484 329.441 102.101 331.482 100.855C332.36 100.322 332.728 100.187 333.621 99.5645C336.375 97.6435 337.981 96.1952 340.082 93.3887C340.262 93.1485 340.375 92.9534 340.555 92.7133C341.808 91.0399 342.551 89.1639 343.519 87.6105C345.192 84.9391 346.378 88.0908 348.374 88.0908C349.147 88.0908 349.68 87.1753 349.785 86.6725C349.867 86.2823 349.785 85.8921 349.657 85.5394C349.425 84.9166 349.447 84.8716 348.944 84.774C348.547 84.6915 348.111 84.6239 347.706 84.6014C347.023 84.5639 345.823 84.5939 345.433 84.0536C344.727 83.0856 345.628 78.7332 345.628 76.6696C345.628 75.1763 345.628 74.8161 345.44 73.2928C345.267 71.9045 344.885 70.959 343.496 72.1071C342.461 72.9626 342.041 73.6305 341.245 74.696C339.985 76.3694 338.844 78.9133 337.711 80.7818L334.807 85.9446C334.612 86.3048 334.424 86.575 334.221 86.9727C334.116 87.1828 334.056 87.2428 333.951 87.4454L326.687 100.352C326.267 101.125 325.096 103.024 325.051 103.557H325.044Z" fill="#06092B"/>
<path fill-rule="evenodd" clip-rule="evenodd" d="M378.953 69.015V118.092H388.686V106.806C388.686 106.806 389.271 103.421 391.732 103.068C394.201 102.716 395.875 102.978 397.128 103.759C398.381 104.532 408.872 118.324 408.872 118.324L420.863 118.504C420.863 118.504 410.282 106.198 409.892 104.367C409.502 102.536 409.577 101.935 410.14 101.125C410.703 100.314 413.119 98.7612 413.119 98.7612C413.119 98.7612 415.61 96.6975 417.216 93.0431C419.52 87.8127 420.323 79.5882 412.098 71.8515C409.164 69.09 402.418 69.0825 398.644 69.03C392.978 68.9625 384.723 69.03 378.945 69.03L378.953 69.015ZM388.641 81.9896L388.618 91.0995C388.618 91.0995 389.361 93.9435 391.935 94.0786C394.509 94.2137 402.433 94.2137 402.433 94.2137C409.892 92.0525 410.725 83.3328 404.849 79.3631C402.05 77.4721 398.861 78.1024 392.055 78.3276C392.055 78.3276 388.566 78.4476 388.648 81.9896H388.641Z" fill="#06092B"/>
<path fill-rule="evenodd" clip-rule="evenodd" d="M266.572 109.372C254.731 109.372 251.354 104.48 249.08 104.292C248.825 105.245 247.332 106.903 246.664 107.796C245.741 109.027 244.788 110.168 244 111.346C245.328 113.327 250.198 115.571 252.862 116.591C258.205 118.632 265.252 119.465 271.375 118.407C273.266 118.077 275.262 117.567 276.83 116.809C280.005 115.27 282.789 113.027 284.034 109.62C285.317 106.115 284.89 101.013 283.269 98.0336C277.07 86.6874 255.001 91.7376 255.001 82.5602C255.001 78.8682 259.751 78.3279 262.618 78.3279C266.662 78.3279 270.669 79.4985 274.151 80.9018C274.729 81.1344 275.082 81.2845 275.652 81.6597C276.328 82.0949 276.493 82.3501 277.288 82.5602C278.091 82.0199 279.464 79.8062 280.11 78.8907C280.8 77.9076 282.391 76.0466 282.646 74.936C281.76 74.6959 280.665 73.5703 279.172 72.7674C275.367 70.7413 270.624 69.383 265.822 69.0078H260.554C257.395 69.2705 254.356 70.0209 251.699 71.3566C244.555 74.9435 240.376 87.1677 250.303 93.7337C252.855 95.4146 255.226 96.4727 258.595 97.2907C259.931 97.6133 262.092 98.1386 263.503 98.3112C267.165 98.754 275.72 99.5344 274.211 104.855C273.243 108.262 270.077 109.365 266.565 109.365L266.572 109.372Z" fill="#06092B"/>
<path fill-rule="evenodd" clip-rule="evenodd" d="M458.811 69.0156H420.15V78.3282C421.696 78.3282 431.054 78.1031 432.104 78.5083C432.877 78.8084 433.808 79.9491 434.078 80.767C435.091 83.7836 433.943 107.091 433.973 113.035C433.98 114.363 433.965 115.683 433.95 117.012C433.928 119.233 434.048 119.015 436.217 118.978C439.046 118.925 441.875 118.963 444.696 118.963C444.696 108.337 444.696 97.7037 444.696 87.0779C444.696 77.7354 445.011 77.9455 455.705 78.0505C457.813 78.073 458.564 78.3582 458.804 77.2176V69.0156H458.811Z" fill="#06092B"/>
<path fill-rule="evenodd" clip-rule="evenodd" d="M286.503 78.3282H298.074C298.569 78.3282 299.342 78.9435 299.65 79.2887C301.526 81.3973 300.611 83.4835 300.611 85.6672V118.685H311.049V82.8456C311.049 81.4799 311.311 80.3468 312.009 79.5664C312.527 78.9885 314.02 78.043 315.003 78.043H324.879V69.0156H286.503V78.3282Z" fill="#06092B"/>
<path d="M550.136 360.621L581.592 353.917L595 416.831L575.316 401.623L563.543 423.534L550.136 360.621Z" fill="#131C83"/>
<path d="M538.122 354.744L569.609 361.305L556.486 424.279L544.614 402.421L525 417.718L538.122 354.744Z" fill="#4C5291"/>
<path d="M566.261 318.485L566.955 318.946L567.787 318.933L575.492 318.813L578.585 325.872L578.919 326.635L579.626 327.074L586.173 331.139L584.958 338.749L584.826 339.571L585.184 340.323L588.494 347.282L583.357 353.027L582.802 353.648L582.697 354.474L581.719 362.118L574.291 364.174L573.489 364.396L572.954 365.033L567.998 370.935L560.639 368.65L559.844 368.403L559.049 368.65L551.689 370.935L546.733 365.033L546.198 364.396L545.396 364.174L537.969 362.118L536.991 354.474L536.885 353.648L536.33 353.027L531.194 347.282L534.503 340.323L534.861 339.571L534.73 338.749L533.515 331.139L540.062 327.074L540.769 326.635L541.103 325.872L544.195 318.813L551.901 318.933L552.733 318.946L553.426 318.485L559.844 314.218L566.261 318.485Z" fill="#FAFAFA" stroke="#06092B" stroke-width="5.36051"/>
</svg>
